<svg width="20" height="19" viewBox="0 0 20 19" fill="none" xmlns="http://www.w3.org/2000/svg">
<path fill-rule="evenodd" clip-rule="evenodd" d="M0 3C0 1.34315 1.34315 0 3 0H17C18.6569 0 20 1.34315 20 3V13C20 14.6569 18.6569 16 17 16H6.36205C6.12811 16 5.90158 16.082 5.72187 16.2318L3.28037 18.2664C1.97771 19.3519 0 18.4256 0 16.7299V3ZM5 6C5 5.44772 5.44772 5 6 5H14C14.5523 5 15 5.44772 15 6C15 6.55228 14.5523 7 14 7H6C5.44772 7 5 6.55228 5 6ZM6 9C5.44772 9 5 9.44771 5 10C5 10.5523 5.44772 11 6 11H10C10.5523 11 11 10.5523 11 10C11 9.44771 10.5523 9 10 9H6Z" fill="#2A85FF"/>
</svg>
